<svg width="20" height="20" viewBox="0 0 20 20" fill="none" xmlns="http://www.w3.org/2000/svg">
<path fill-rule="evenodd" clip-rule="evenodd" d="M13.612 0.0380001C12.59 1.08033e-07 11.399 0 10 0C5.286 0 2.929 0 1.464 1.464C0 2.93 0 5.286 0 10C0 14.714 0 17.071 1.464 18.535C2.93 20 5.286 20 10 20C14.714 20 17.071 20 18.535 18.535C20 17.072 20 14.714 20 10C20 8.601 20 7.41 19.962 6.388C19.1029 7.14022 17.9899 7.5377 16.8486 7.49988C15.7073 7.46206 14.6231 6.99178 13.8157 6.18433C13.0082 5.37688 12.5379 4.29266 12.5001 3.15138C12.4623 2.01011 12.8598 0.897132 13.612 0.0380001ZM15.48 7.424C15.6327 7.55134 15.7286 7.73411 15.7466 7.93213C15.7646 8.13015 15.7032 8.32721 15.576 8.48L13.747 10.675C13.419 11.069 13.123 11.425 12.847 11.675C12.545 11.945 12.167 12.188 11.667 12.188C11.167 12.188 10.788 11.946 10.487 11.674C10.211 11.424 9.915 11.069 9.586 10.674L9.294 10.324C8.923 9.879 8.695 9.608 8.507 9.439C8.45808 9.39156 8.40331 9.35056 8.344 9.317L8.334 9.312L8.329 9.314L8.322 9.317C8.26269 9.35056 8.20792 9.39156 8.159 9.439C7.972 9.609 7.744 9.879 7.373 10.324L5.576 12.48C5.44708 12.6274 5.26565 12.7185 5.07046 12.7339C4.87527 12.7492 4.6818 12.6877 4.53138 12.5623C4.38097 12.437 4.28554 12.2578 4.26547 12.063C4.24541 11.8683 4.3023 11.6734 4.424 11.52L6.253 9.325C6.581 8.931 6.877 8.575 7.153 8.325C7.455 8.055 7.833 7.812 8.333 7.812C8.833 7.812 9.212 8.054 9.513 8.326C9.789 8.576 10.085 8.931 10.414 9.326L10.706 9.676C11.077 10.121 11.305 10.392 11.493 10.561C11.579 10.639 11.631 10.671 11.656 10.683L11.659 10.684L11.667 10.688L11.677 10.683C11.7367 10.6495 11.7918 10.6085 11.841 10.561C12.028 10.391 12.256 10.121 12.627 9.676L14.424 7.52C14.5513 7.36729 14.7341 7.27139 14.9321 7.25338C15.1301 7.23538 15.3272 7.29675 15.48 7.424Z" fill="#ABABAB"/>
</svg>
