<svg width="1321" height="1333" viewBox="0 0 1321 1333" fill="none" xmlns="http://www.w3.org/2000/svg">
<g opacity="0.03">
<path fill-rule="evenodd" clip-rule="evenodd" d="M61.8426 754.841L131.847 766.908L659.445 234.042C685.636 206.585 701.268 187.245 733.536 164.614C764.639 223.744 802.239 287.144 836.177 348.765L1141.62 906.522L1213.91 916.137C1179.26 886.456 1020.53 571.409 980.288 503.734L744.893 80.7576C726.883 88.1042 740.527 80.1521 722.075 94.5847L233.478 590.255C202.571 621.566 174.605 647.694 146.62 675.911C115.503 707.267 80.7571 753.62 61.8426 754.841Z" fill="white"/>
<path fill-rule="evenodd" clip-rule="evenodd" d="M229.295 780.355L294.383 788.979L495.81 588.468C542.853 540.976 667.794 425.208 692.424 381.822C721.465 406.758 882.493 704.722 913.796 761.519L979.092 884.323L1044.23 893.084L717.669 296.999C706.598 303.422 711.141 300.273 700.326 308.757L350.667 660.715C313.332 698.487 268.275 750.163 229.295 780.355Z" fill="white"/>
<path fill-rule="evenodd" clip-rule="evenodd" d="M558.043 825.874L460.61 812.298L391.841 802.492L294.399 788.981L229.311 780.357L131.86 766.91L61.8562 754.843L50.3234 808.873L1208.67 969.556L1213.92 916.139L1141.63 906.524L1044.24 893.086L979.108 884.325L881.731 870.823L816.586 861.658L719.283 848.092C686.509 844.228 657.372 833.107 639.887 830.346C629.982 828.833 588.271 830.606 558.043 825.874Z" fill="white"/>
<path fill-rule="evenodd" clip-rule="evenodd" d="M121.251 896.991L123.344 911.575L1114.1 1048.75L1123.18 1002.2L1091.99 991.809L127.322 859.064L121.251 896.991Z" fill="white"/>
<path fill-rule="evenodd" clip-rule="evenodd" d="M232.085 1003.38L233.133 1019.17L978.583 1122.4L987.695 1073.23L954.155 1065.61L237.513 966.715L232.085 1003.38Z" fill="white"/>
<path fill-rule="evenodd" clip-rule="evenodd" d="M391.831 802.492L460.599 812.298C498.577 773.729 636.163 619.323 673.144 602.067C715.775 683.63 768.553 781.502 816.576 861.658L881.72 870.822C824.343 781.82 732.145 577.749 684.244 518.175L642.581 549.683C630.886 561.618 619.577 573.599 606.711 586.65L391.831 802.492Z" fill="white"/>
<path fill-rule="evenodd" clip-rule="evenodd" d="M332.234 1121.51L852.726 1197.67L861.009 1145.68L338.748 1073.53L332.234 1121.51Z" fill="white"/>
<path fill-rule="evenodd" clip-rule="evenodd" d="M414.516 1227.25L745.545 1275.18L750.554 1239.05L750.531 1222.66L423.107 1177.47L414.516 1227.25Z" fill="white"/>
<path fill-rule="evenodd" clip-rule="evenodd" d="M558.059 825.878C588.286 830.61 629.998 828.837 639.902 830.35C657.388 833.11 686.525 844.232 719.299 848.096C694.827 817.934 672.53 767.647 657.03 734.548L606.959 777.636C589.808 795.282 576.464 810.832 558.059 825.878Z" fill="white"/>
</g>
</svg>
