<svg width="124" height="124" viewBox="0 0 124 124" fill="none" xmlns="http://www.w3.org/2000/svg">
<circle cx="62" cy="62" r="62" fill="#F0F9F4"/>
<path d="M55.4663 70.4L78.0663 47.8C78.5997 47.2667 79.2219 47 79.933 47C80.6441 47 81.2663 47.2667 81.7997 47.8C82.333 48.3333 82.5997 48.9671 82.5997 49.7013C82.5997 50.4356 82.333 51.0684 81.7997 51.6L57.333 76.1333C56.7997 76.6667 56.1774 76.9333 55.4663 76.9333C54.7552 76.9333 54.133 76.6667 53.5997 76.1333L42.133 64.6667C41.5997 64.1333 41.3437 63.5004 41.365 62.768C41.3863 62.0356 41.6646 61.4018 42.1997 60.8667C42.7348 60.3316 43.3686 60.0649 44.101 60.0667C44.8334 60.0684 45.4663 60.3351 45.9997 60.8667L55.4663 70.4Z" fill="#20A43D"/>
</svg>
